<svg width="84" height="16" viewBox="0 0 84 16" fill="none" xmlns="http://www.w3.org/2000/svg">
<path d="M1.56438 12H2.60838V8.508H4.00038C5.63238 8.508 7.00038 7.8 7.00038 5.976V5.928C7.00038 4.14 5.64438 3.42 4.00038 3.42H1.56438V12ZM2.60838 7.68V4.26H4.07238C5.23638 4.26 5.95638 4.716 5.95638 5.928V5.976C5.95638 7.08 5.29638 7.68 4.07238 7.68H2.60838ZM10.6433 12.108C12.4313 12.108 13.7393 10.8 13.7393 8.904V8.808C13.7393 6.924 12.4313 5.616 10.6553 5.616C8.87925 5.616 7.57125 6.936 7.57125 8.82V8.916C7.57125 10.752 8.85525 12.108 10.6433 12.108ZM10.6553 11.28C9.38325 11.28 8.60325 10.344 8.60325 8.916V8.82C8.60325 7.38 9.39525 6.444 10.6553 6.444C11.9033 6.444 12.7073 7.38 12.7073 8.832V8.916C12.7073 10.332 11.9153 11.28 10.6553 11.28ZM16.1743 12H17.2663L18.7303 7.296L20.0383 12H21.1423L23.0983 5.724H22.0783L20.6023 10.776L19.1743 5.724H18.3103L16.7863 10.776L15.3223 5.724H14.2423L16.1743 12ZM26.6424 12.108C28.0584 12.108 29.1024 11.448 29.3184 10.188H28.3224C28.1904 10.92 27.6264 11.28 26.6544 11.28C25.3704 11.28 24.6864 10.488 24.6384 9.06H29.3664V8.736C29.3664 6.492 27.9984 5.616 26.5464 5.616C24.8184 5.616 23.6064 6.936 23.6064 8.832V8.928C23.6064 10.86 24.8664 12.108 26.6424 12.108ZM24.6744 8.256C24.8424 7.14 25.5264 6.444 26.5464 6.444C27.5784 6.444 28.2504 6.96 28.3464 8.256H24.6744ZM30.6447 12H31.6407V8.556C31.6407 7.008 32.4447 6.612 33.7047 6.552V5.616C32.5767 5.652 32.0367 6.144 31.6407 6.852V5.724H30.6447V12ZM37.2987 12.108C38.7147 12.108 39.7587 11.448 39.9747 10.188H38.9787C38.8467 10.92 38.2827 11.28 37.3107 11.28C36.0267 11.28 35.3427 10.488 35.2947 9.06H40.0227V8.736C40.0227 6.492 38.6547 5.616 37.2027 5.616C35.4747 5.616 34.2627 6.936 34.2627 8.832V8.928C34.2627 10.86 35.5227 12.108 37.2987 12.108ZM35.3307 8.256C35.4987 7.14 36.1827 6.444 37.2027 6.444C38.2347 6.444 38.9067 6.96 39.0027 8.256H35.3307ZM43.665 12.108C44.577 12.108 45.453 11.532 45.813 10.92V12H46.809V2.724H45.813V6.732C45.453 6.12 44.805 5.616 43.761 5.616C42.033 5.616 40.833 6.972 40.833 8.892V8.988C40.833 10.944 42.021 12.108 43.665 12.108ZM43.773 11.28C42.717 11.28 41.865 10.524 41.865 8.94V8.844C41.865 7.32 42.609 6.444 43.857 6.444C45.081 6.444 45.849 7.2 45.849 8.808V8.904C45.849 10.512 44.937 11.28 43.773 11.28ZM54.6202 12.108C56.3482 12.108 57.4762 10.788 57.4762 8.868V8.772C57.4762 6.816 56.2642 5.616 54.6202 5.616C53.7082 5.616 52.8562 6.168 52.4962 6.78V2.724H51.5002V12H52.4962V10.968C52.8562 11.592 53.6002 12.108 54.6202 12.108ZM54.5242 11.28C53.3002 11.28 52.4602 10.524 52.4602 8.916V8.82C52.4602 7.212 53.3482 6.444 54.5122 6.444C55.5682 6.444 56.4442 7.236 56.4442 8.82V8.916C56.4442 10.44 55.7722 11.28 54.5242 11.28ZM59.2204 14.184H60.2284L63.6964 5.724H62.6764L60.9364 10.224L59.0164 5.724H57.9484L60.4084 11.352L59.2204 14.184Z" fill="white"/>
<g clip-path="url(#clip0_1525_634)">
<path d="M83.9416 11.5227C83.8307 11.2196 83.6182 11.0587 83.3775 10.9244C83.3322 10.8978 83.29 10.876 83.2557 10.8603C83.1838 10.8229 83.1104 10.7869 83.0369 10.7494C82.2854 10.3511 81.6979 9.84805 81.2916 9.25285C81.1541 9.05133 81.0588 8.87012 80.9916 8.72171C80.9572 8.62173 80.9588 8.56549 80.9838 8.51394C81.0025 8.47488 81.0525 8.43426 81.0807 8.41396C81.2104 8.32804 81.3432 8.24211 81.4338 8.18431C81.5947 8.07965 81.7229 7.99685 81.8041 7.94061C82.1135 7.72503 82.3291 7.49539 82.4635 7.23919C82.6541 6.87832 82.6775 6.46591 82.5307 6.07848C82.3275 5.54109 81.8182 5.20678 81.2025 5.20678C81.0744 5.20678 80.9447 5.22084 80.8166 5.24896C80.7822 5.25677 80.7494 5.26458 80.7166 5.27239C80.7229 4.90684 80.7135 4.51629 80.6807 4.13512C80.565 2.79163 80.0947 2.08709 79.6041 1.52626C79.3994 1.29193 79.0432 0.949812 78.5088 0.643622C77.7635 0.215582 76.9197 0 75.9994 0C75.0822 0 74.2385 0.215582 73.4932 0.64206C72.9557 0.948249 72.5994 1.29193 72.3963 1.5247C71.9057 2.08552 71.4354 2.79007 71.3197 4.13356C71.2869 4.51473 71.2791 4.90528 71.2838 5.27083C71.251 5.26302 71.2166 5.25521 71.1838 5.2474C71.0557 5.21928 70.9244 5.20522 70.7979 5.20522C70.1822 5.20522 69.6729 5.53953 69.4697 6.07692C69.3229 6.46434 69.3463 6.87676 69.5369 7.23763C69.6713 7.49383 69.8885 7.72347 70.1963 7.93905C70.2791 7.99685 70.4057 8.07965 70.5666 8.18275C70.6541 8.23899 70.7807 8.32179 70.9057 8.40458C70.9244 8.41708 70.9916 8.46707 71.015 8.51394C71.0416 8.56705 71.0416 8.62485 71.0025 8.73108C70.9369 8.87636 70.8416 9.05445 70.7072 9.25129C70.3088 9.83399 69.7385 10.3276 69.0119 10.7213C68.626 10.926 68.226 11.0619 68.0572 11.5212C67.9291 11.868 68.0135 12.2632 68.3369 12.5959C68.4432 12.71 68.5775 12.8115 68.7463 12.9053C69.1432 13.124 69.4807 13.2317 69.7463 13.3052C69.7932 13.3192 69.901 13.3536 69.9479 13.3958C70.0666 13.4989 70.0494 13.6551 70.2072 13.8832C70.3025 14.0253 70.4119 14.1222 70.5025 14.1847C70.8322 14.4128 71.2041 14.4268 71.5979 14.4424C71.9525 14.4565 72.3557 14.4721 72.815 14.6237C73.0057 14.6861 73.2041 14.808 73.4322 14.9486C73.9822 15.2876 74.7369 15.75 75.9979 15.75C77.2604 15.75 78.0182 15.2845 78.5729 14.9455C78.801 14.8064 78.9979 14.6846 79.1822 14.6237C79.6416 14.4721 80.0447 14.4565 80.3994 14.4424C80.7932 14.4268 81.1635 14.4128 81.4947 14.1847C81.5979 14.1128 81.7291 13.9957 81.8322 13.8176C81.9447 13.6254 81.9432 13.4895 82.0494 13.3973C82.0932 13.3598 82.1885 13.327 82.24 13.3114C82.5072 13.238 82.8494 13.1302 83.2541 12.9068C83.4338 12.8084 83.5729 12.7006 83.6838 12.5772C83.6854 12.5756 83.6869 12.5741 83.6885 12.5725C83.99 12.2444 84.0666 11.8617 83.9416 11.5227ZM82.8213 12.1242C82.1369 12.5022 81.6822 12.4616 81.3291 12.6881C81.0291 12.8818 81.2057 13.2989 80.9885 13.4489C80.7197 13.6348 79.9275 13.4364 78.9041 13.7738C78.0604 14.0535 77.5213 14.8549 76.001 14.8549C74.4775 14.8549 73.9541 14.0566 73.0979 13.7738C72.0744 13.4364 71.2807 13.6348 71.0135 13.4489C70.7963 13.2989 70.9729 12.8818 70.6729 12.6881C70.3197 12.46 69.865 12.5006 69.1807 12.1242C68.7447 11.8836 68.9916 11.7352 69.1369 11.6649C71.615 10.4667 72.0088 8.61392 72.0275 8.47488C72.0494 8.30929 72.0729 8.17807 71.89 8.00779C71.7135 7.84376 70.9275 7.35792 70.7104 7.20638C70.3494 6.95487 70.1916 6.70336 70.3088 6.39404C70.39 6.18002 70.59 6.10035 70.801 6.10035C70.8666 6.10035 70.9338 6.10816 70.9979 6.12222C71.3932 6.20814 71.7775 6.40654 71.9994 6.45966C72.0307 6.46747 72.0572 6.47059 72.0807 6.47059C72.1994 6.47059 72.24 6.41123 72.2322 6.27532C72.2072 5.84259 72.1447 4.99901 72.2135 4.2101C72.3072 3.12594 72.6572 2.58855 73.0729 2.11208C73.2729 1.884 74.2104 0.893573 76.0025 0.893573C77.7994 0.893573 78.7322 1.884 78.9322 2.11208C79.3479 2.58699 79.6979 3.12438 79.7916 4.2101C79.8604 4.99901 79.801 5.84259 79.7729 6.27532C79.7635 6.41748 79.8072 6.47059 79.9244 6.47059C79.9479 6.47059 79.976 6.46747 80.0057 6.45966C80.2275 6.40654 80.6119 6.20814 81.0072 6.12222C81.0713 6.10816 81.1385 6.10035 81.2041 6.10035C81.415 6.10035 81.615 6.18159 81.6963 6.39404C81.8135 6.70336 81.6541 6.95487 81.2947 7.20638C81.0775 7.35792 80.2916 7.84376 80.115 8.00779C79.9322 8.1765 79.9557 8.30773 79.9775 8.47488C79.9947 8.61392 80.39 10.4667 82.8682 11.6649C83.0088 11.7352 83.2572 11.8836 82.8213 12.1242Z" fill="white"/>
</g>
<defs>
<clipPath id="clip0_1525_634">
<rect width="16" height="16" fill="white" transform="translate(68)"/>
</clipPath>
</defs>
</svg>
